<svg xmlns="http://www.w3.org/2000/svg" viewBox="0 0 292 76" role="img" aria-labelledby="title desc">
  <title id="title">GEOgurus</title>
  <desc id="desc">Logo der GEOgurus Agentur fuer Generative Engine Optimization</desc>
  <defs>
    <linearGradient id="mark-bg" x1="6" y1="8" x2="68" y2="70" gradientUnits="userSpaceOnUse">
      <stop offset="0" stop-color="#13c8b5"/>
      <stop offset=".56" stop-color="#37d7c7"/>
      <stop offset="1" stop-color="#f5b84b"/>
    </linearGradient>
    <linearGradient id="word-accent" x1="180" y1="18" x2="300" y2="52" gradientUnits="userSpaceOnUse">
      <stop offset="0" stop-color="#13c8b5"/>
      <stop offset="1" stop-color="#68dfd2"/>
    </linearGradient>
    <filter id="soft-shadow" x="-18%" y="-18%" width="136%" height="136%">
      <feDropShadow dx="0" dy="8" stdDeviation="8" flood-color="#000000" flood-opacity=".22"/>
    </filter>
  </defs>
  <g filter="url(#soft-shadow)">
    <rect x="4" y="8" width="60" height="60" rx="17" fill="url(#mark-bg)"/>
    <path d="M34.1 18.2c-9.8 0-17.8 7.7-17.8 17.5 0 9.7 7.8 17.6 17.7 17.6 5.5 0 10.3-2 13.5-5.5V34.6H33.1v7.2h6.7v2.5c-1.5.8-3.3 1.2-5.4 1.2-5.6 0-9.8-4.1-9.8-9.8 0-5.6 4.2-9.8 9.8-9.8 3.3 0 5.9 1.2 8.1 3.4l5.7-5.5c-3.4-3.6-8.1-5.6-14.1-5.6Z" fill="#081111"/>
    <path d="M51.9 19.8c3.2 3.8 5.2 8.8 5.2 14.2 0 12.5-10.2 22.7-22.8 22.7-4.8 0-9.2-1.5-12.8-4" fill="none" stroke="#081111" stroke-width="3.2" stroke-linecap="round" opacity=".4"/>
    <circle cx="52.8" cy="20.5" r="3.6" fill="#081111" opacity=".58"/>
  </g>
  <text x="82" y="43" fill="#f7f2e8" font-family="Inter, ui-sans-serif, system-ui, -apple-system, BlinkMacSystemFont, 'Segoe UI', sans-serif" font-size="34" font-weight="900" letter-spacing="0">GEO<tspan fill="url(#word-accent)" font-weight="850">gurus</tspan></text>
  <text x="84" y="59" fill="#f7f2e8" opacity=".58" font-family="Inter, ui-sans-serif, system-ui, -apple-system, BlinkMacSystemFont, 'Segoe UI', sans-serif" font-size="8.6" font-weight="800" letter-spacing="0">GENERATIVE ENGINE OPTIMIZATION</text>
</svg>
