<svg xmlns="http://www.w3.org/2000/svg" viewBox="0 0 64 64" role="img" aria-label="GEOgurus">
  <defs>
    <linearGradient id="mark-bg" x1="5" y1="6" x2="59" y2="60" gradientUnits="userSpaceOnUse">
      <stop offset="0" stop-color="#13c8b5"/>
      <stop offset=".56" stop-color="#37d7c7"/>
      <stop offset="1" stop-color="#f5b84b"/>
    </linearGradient>
  </defs>
  <rect x="4" y="4" width="56" height="56" rx="16" fill="url(#mark-bg)"/>
  <path d="M32.1 15.8c-9.7 0-17.6 7.6-17.6 17.3 0 9.6 7.7 17.4 17.5 17.4 5.4 0 10.1-2 13.3-5.4V32H31.1v7.1h6.6v2.4c-1.4.8-3.3 1.1-5.3 1.1-5.5 0-9.7-4-9.7-9.7 0-5.5 4.1-9.7 9.7-9.7 3.2 0 5.8 1.2 8 3.4l5.6-5.4c-3.3-3.5-8-5.4-13.9-5.4Z" fill="#081111"/>
  <path d="M49.6 17.4c3.1 3.8 5.1 8.6 5.1 13.9 0 12.3-10 22.4-22.5 22.4-4.7 0-9-1.5-12.6-4" fill="none" stroke="#081111" stroke-width="3.1" stroke-linecap="round" opacity=".4"/>
  <circle cx="50.4" cy="18.1" r="3.5" fill="#081111" opacity=".58"/>
</svg>
